<svg id="Capa_1" enable-background="new 0 0 512 512" height="512" viewBox="0 0 512 512" width="512" xmlns="http://www.w3.org/2000/svg"><g><path d="m273.957 300.302c15.955 0 28.936-12.98 28.936-28.935 0-11.195-6.395-20.918-15.72-25.728 2.303-3.749 3.634-8.157 3.634-12.87 0-10.985-7.22-20.312-17.163-23.494v-13.183c0-4.142-3.357-7.5-7.5-7.5s-7.5 3.358-7.5 7.5v12.014h-7.605v-12.014c0-4.142-3.358-7.5-7.5-7.5s-7.5 3.358-7.5 7.5v12.014h-1.291-13.368c-4.142 0-7.5 3.358-7.5 7.5s3.358 7.5 7.5 7.5h5.868v62.197h-5.868c-4.142 0-7.5 3.358-7.5 7.5s3.358 7.5 7.5 7.5h13.368 1.291v12.014c0 4.142 3.358 7.5 7.5 7.5s7.5-3.358 7.5-7.5v-12.014h7.605v12.014c0 4.142 3.357 7.5 7.5 7.5s7.5-3.358 7.5-7.5v-12.014h.313zm0-15h-31.71v-27.87h23.896 7.813c7.685 0 13.936 6.251 13.936 13.935s-6.25 13.935-13.935 13.935zm-7.813-42.87h-23.896v-19.327h23.896c5.328 0 9.663 4.335 9.663 9.664 0 5.328-4.335 9.663-9.663 9.663z"/><path d="m116.713 377.009v-195.379c0-4.142-3.358-7.5-7.5-7.5s-7.5 3.358-7.5 7.5v195.379c-13.282 3.354-23.142 15.4-23.142 29.709 0 16.896 13.746 30.642 30.642 30.642s30.642-13.746 30.642-30.642c0-14.308-9.86-26.355-23.142-29.709zm-7.5 45.351c-8.625 0-15.642-7.017-15.642-15.642s7.017-15.642 15.642-15.642 15.642 7.017 15.642 15.642-7.017 15.642-15.642 15.642z"/><path d="m377.008 410.285c3.354 13.282 15.401 23.142 29.71 23.142 16.896 0 30.642-13.746 30.642-30.642s-13.746-30.642-30.642-30.642c-14.309 0-26.355 9.86-29.71 23.142h-195.379c-4.142 0-7.5 3.358-7.5 7.5s3.358 7.5 7.5 7.5zm29.71-23.141c8.625 0 15.642 7.017 15.642 15.642s-7.017 15.642-15.642 15.642-15.642-7.017-15.642-15.642 7.017-15.642 15.642-15.642z"/><path d="m462.16 293.745v-75.506c27.853-2.24 49.838-25.607 49.838-54.027v-109.989c0-29.897-24.323-54.22-54.22-54.22h-109.989c-28.423 0-51.808 21.983-54.045 49.84h-75.506c-2.238-27.856-25.606-49.843-54.028-49.843h-109.99c-29.897 0-54.22 24.323-54.22 54.22v109.99c0 28.423 21.983 51.808 49.84 54.045v75.507c-27.854 2.24-49.84 25.607-49.84 54.028v109.99c0 23.369 14.883 44.039 37.035 51.434.788.263 1.588.388 2.376.388 3.139 0 6.064-1.986 7.113-5.127 1.312-3.929-.81-8.177-4.739-9.489-16.021-5.349-26.785-20.301-26.785-37.206v-109.99c0-20.145 15.269-36.784 34.84-38.969v97.899c0 32.736 26.633 59.37 59.37 59.37 15.849 0 30.758-6.174 41.984-17.387 11.218-11.219 17.396-26.128 17.396-41.983v-97.9c19.571 2.186 34.84 18.825 34.84 38.97v3.12c0 4.142 3.358 7.5 7.5 7.5h195.79c11.846 0 22.99 4.616 31.374 12.99 8.381 8.39 12.996 19.534 12.996 31.379 0 24.472-19.904 44.38-44.37 44.38h-195.79c-4.142 0-7.5 3.358-7.5 7.5v3.12c0 21.626-17.594 39.22-39.22 39.22h-94.99c-4.142 0-7.5 3.358-7.5 7.5s3.358 7.5 7.5 7.5h94.99c28.423 0 51.808-21.983 54.045-49.84h75.508c2.24 27.854 25.607 49.84 54.027 49.84h109.99c29.896 0 54.22-24.323 54.22-54.22v-109.989c0-28.423-21.983-51.808-49.84-54.045zm-308.57 112.975c0 11.848-4.618 22.991-13 31.374-8.39 8.381-19.534 12.996-31.38 12.996-24.466 0-44.37-19.904-44.37-44.37v-195.79c0-4.142-3.358-7.5-7.5-7.5h-3.12c-21.626 0-39.22-17.594-39.22-39.22v-109.99c0-21.626 17.594-39.22 39.22-39.22h109.99c20.146 0 36.785 15.271 38.97 34.843h-97.899c-32.736 0-59.37 26.633-59.37 59.37 0 15.849 6.174 30.758 17.387 41.983 11.219 11.218 26.128 17.396 41.983 17.396h97.898c-2.187 19.57-18.825 34.838-38.969 34.838h-3.12c-4.142 0-7.5 3.358-7.5 7.5zm15-112.961v-75.504c26.41-2.121 47.527-23.254 49.651-49.663h75.503c2.121 26.411 23.255 47.528 49.666 49.65v75.503c-26.41 2.121-47.527 23.255-49.65 49.665h-75.505c-2.121-26.41-23.255-47.528-49.665-49.651zm328.41 164.021c0 21.626-17.594 39.22-39.22 39.22h-109.99c-20.145 0-36.783-15.269-38.969-34.84h97.899c32.736 0 59.37-26.638 59.37-59.38 0-15.849-6.174-30.758-17.39-41.986-11.223-11.21-26.132-17.384-41.98-17.384h-97.899c2.186-19.571 18.824-34.84 38.969-34.84h3.12c4.143 0 7.5-3.358 7.5-7.5v-195.79c0-11.857 4.617-23 13.004-31.376 8.385-8.385 19.527-13.003 31.376-13.003 24.466 0 44.37 19.909 44.37 44.38v28.11c0 4.142 3.357 7.5 7.5 7.5s7.5-3.358 7.5-7.5v-28.11c0-32.742-26.634-59.38-59.37-59.38-15.855 0-30.765 6.178-41.979 17.394-11.221 11.208-17.4 26.119-17.4 41.986v97.901c-19.572-2.185-34.841-18.824-34.841-38.969v-3.12c0-4.142-3.357-7.5-7.5-7.5h-195.789c-11.848 0-22.991-4.618-31.374-13-8.38-8.39-12.996-19.534-12.996-31.379 0-24.465 19.904-44.37 44.37-44.37h195.789c4.143 0 7.5-3.358 7.5-7.5v-3.12c0-21.626 17.594-39.22 39.22-39.22h109.989c21.626 0 39.22 17.594 39.22 39.22v109.989c0 20.144-15.268 36.782-34.838 38.969v-39.832c0-4.142-3.357-7.5-7.5-7.5s-7.5 3.358-7.5 7.5v137.72c0 4.142 3.357 7.5 7.5 7.5h3.12c21.626 0 39.22 17.594 39.22 39.22v109.99z"/><path d="m402.786 74.64c-16.896 0-30.642 13.746-30.642 30.642 0 14.309 9.86 26.355 23.142 29.709v195.379c0 4.142 3.357 7.5 7.5 7.5s7.5-3.358 7.5-7.5v-195.379c13.281-3.354 23.142-15.4 23.142-29.709 0-16.897-13.746-30.642-30.642-30.642zm0 46.283c-8.625 0-15.642-7.017-15.642-15.642s7.017-15.642 15.642-15.642 15.642 7.017 15.642 15.642-7.017 15.642-15.642 15.642z"/><path d="m330.371 101.715h-195.379c-3.354-13.282-15.401-23.142-29.71-23.142-16.896 0-30.642 13.746-30.642 30.642s13.746 30.642 30.642 30.642c14.309 0 26.355-9.86 29.71-23.142h195.379c4.143 0 7.5-3.358 7.5-7.5s-3.357-7.5-7.5-7.5zm-225.089 23.141c-8.625 0-15.642-7.017-15.642-15.642s7.017-15.642 15.642-15.642 15.642 7.017 15.642 15.642-7.017 15.642-15.642 15.642z"/></g></svg>